<svg width="35" height="29" viewBox="0 0 35 29" fill="none" xmlns="http://www.w3.org/2000/svg">
<path d="M17.4013 27.3364C24.8092 27.3364 30.8145 21.3311 30.8145 13.9231C30.8145 6.51521 24.8092 0.509888 17.4013 0.509888C9.99335 0.509888 3.98804 6.51521 3.98804 13.9231C3.98804 21.3311 9.99335 27.3364 17.4013 27.3364Z" fill="#F9D888"/>
<path d="M23.8354 22.1715V23.5715C23.8354 25.983 25.7904 27.9379 28.2018 27.9379C30.6133 27.9379 32.5682 25.983 32.5682 23.5715V22.1715H23.8354Z" fill="#F2C13B"/>
<path d="M33.4378 20.5013C32.6245 20.0363 31.5883 20.3188 31.1235 21.1321L30.084 22.9504C29.6191 23.7637 29.9015 24.7999 30.7148 25.2648C31.5281 25.7297 32.5643 25.4473 33.0292 24.634L34.0686 22.8156C34.5335 22.0023 34.2511 20.9661 33.4378 20.5013Z" fill="#F5C956"/>
<path d="M27.596 20.7108V14.7593C27.596 13.8225 26.8366 13.0631 25.8998 13.0631C24.963 13.0631 24.2036 13.8225 24.2036 14.7593V20.7108H27.596Z" fill="#F2C13B"/>
<path d="M31.183 13.6337C30.3048 13.3075 29.3285 13.7549 29.0023 14.6331L26.9297 20.2119L30.1097 21.3933L32.1823 15.8144C32.5085 14.9363 32.0611 13.9599 31.183 13.6337Z" fill="#F2C13B"/>
<path d="M6.7888 12.7369C6.7888 8.48604 8.55997 4.6491 11.4042 1.92297C7.00719 4.12469 3.98804 8.67099 3.98804 13.9231C3.98804 21.3311 9.99339 27.3365 17.4013 27.3365C17.6981 27.3365 17.9925 27.3258 18.2845 27.3067C11.692 25.737 6.7888 19.8099 6.7888 12.7369Z" fill="#F8D070"/>
<path d="M10.9667 22.1715V23.5715C10.9667 25.983 9.01175 27.9379 6.60027 27.9379C4.18879 27.9379 2.23389 25.983 2.23389 23.5715V22.1715H10.9667Z" fill="#F2C13B"/>
<path d="M1.3647 20.5013C2.17799 20.0363 3.21417 20.3188 3.67904 21.1321L4.71849 22.9504C5.18342 23.7637 4.90099 24.7999 4.0877 25.2648C3.2744 25.7297 2.23822 25.4473 1.77335 24.634L0.733907 22.8156C0.26904 22.0023 0.5514 20.9661 1.3647 20.5013Z" fill="#F5C956"/>
<path d="M7.20605 20.7108V14.7593C7.20605 13.8225 7.96545 13.0631 8.90225 13.0631C9.83906 13.0631 10.5985 13.8225 10.5985 14.7593V20.7108H7.20605Z" fill="#F2C13B"/>
<path d="M3.61939 13.6337C4.49753 13.3075 5.4739 13.7549 5.8001 14.6331L7.87267 20.2119L4.69262 21.3933L2.62005 15.8144C2.29385 14.9363 2.74125 13.9599 3.61939 13.6337Z" fill="#F2C13B"/>
<path d="M10.4517 11.6518C11.8678 11.6518 13.0159 10.7376 13.0159 9.60979C13.0159 8.482 11.8678 7.56775 10.4517 7.56775C9.03549 7.56775 7.88745 8.482 7.88745 9.60979C7.88745 10.7376 9.03549 11.6518 10.4517 11.6518Z" fill="#FF9DB0"/>
<path d="M24.3506 11.6518C25.7668 11.6518 26.9148 10.7376 26.9148 9.60979C26.9148 8.482 25.7668 7.56775 24.3506 7.56775C22.9344 7.56775 21.7864 8.482 21.7864 9.60979C21.7864 10.7376 22.9344 11.6518 24.3506 11.6518Z" fill="#FF9DB0"/>
<path d="M30.4928 18.8177C29.6795 18.3527 28.6433 18.6352 28.1784 19.4485L27.139 21.2668C26.674 22.0801 26.9565 23.1163 27.7698 23.5812C28.5831 24.0461 29.6192 23.7637 30.0841 22.9504L31.1235 21.132C31.5885 20.3188 31.3061 19.2826 30.4928 18.8177Z" fill="#F0B60B"/>
<path d="M26.9974 20.2458H24.903C23.9662 20.2458 23.2068 21.0052 23.2068 21.942C23.2068 22.8789 23.9662 23.6382 24.903 23.6382H26.9974C27.9342 23.6382 28.6936 22.8789 28.6936 21.942C28.6936 21.0052 27.9342 20.2458 26.9974 20.2458Z" fill="#F5C956"/>
<path d="M4.31004 18.8177C5.12334 18.3527 6.15952 18.6352 6.62438 19.4485L7.66383 21.2668C8.12876 22.0801 7.84634 23.1163 7.03304 23.5812C6.21974 24.0461 5.18356 23.7637 4.71869 22.9504L3.67925 21.132C3.21431 20.3188 3.49674 19.2826 4.31004 18.8177Z" fill="#F0B60B"/>
<path d="M7.80509 20.2458H9.89954C10.8363 20.2458 11.5957 21.0052 11.5957 21.942C11.5957 22.8789 10.8363 23.6382 9.89954 23.6382H7.80509C6.86828 23.6382 6.10889 22.8789 6.10889 21.942C6.10889 21.0052 6.86835 20.2458 7.80509 20.2458Z" fill="#F5C956"/>
<path d="M1.33105 24.8871C1.55156 25.2728 1.87212 25.5658 2.24108 25.7542C3.06457 27.3967 4.75485 28.4478 6.60093 28.4478C8.34376 28.4478 9.87506 27.5281 10.7374 26.1492C12.774 27.2608 15.0666 27.8464 17.4017 27.8464C19.7368 27.8464 22.0294 27.2608 24.066 26.1492C24.9284 27.5281 26.4597 28.4478 28.2025 28.4478C30.0474 28.4478 31.7367 27.398 32.5608 25.7572C32.9404 25.5643 33.2561 25.2654 33.4724 24.8872L34.5118 23.0688C35.1155 22.0128 34.7474 20.6625 33.6914 20.0588C33.1 19.7207 32.4163 19.6876 31.8231 19.9093C31.7725 19.6221 31.6652 19.3461 31.5067 19.0985L32.6607 15.9921C33.09 14.8365 32.491 13.54 31.3022 13.1357C31.1863 11.0839 30.6123 9.06236 29.6322 7.26576C28.6213 5.41288 27.1754 3.78649 25.4507 2.56237C25.2212 2.39944 24.9029 2.45341 24.7399 2.68302C24.577 2.91263 24.631 3.23088 24.8606 3.39381C26.4596 4.52869 27.8 6.0364 28.7371 7.75401C29.6341 9.39835 30.1507 11.1739 30.2753 13.0393C29.4804 13.1517 28.8065 13.6976 28.5248 14.4556L28.1066 15.5814V14.7594C28.1066 13.543 27.117 12.5535 25.9006 12.5535C24.6842 12.5535 23.6946 13.5431 23.6946 14.7594V20.0972C23.1009 20.4845 22.6973 21.1719 22.6973 21.9422C22.6973 22.5146 22.9189 23.0689 23.3263 23.4845C23.3353 23.5913 23.2914 24.3384 23.6168 25.2332C21.7202 26.277 19.5809 26.8268 17.4017 26.8268C15.2226 26.8268 13.0833 26.277 11.1867 25.2332C11.5134 24.3348 11.4739 23.524 11.4772 23.4845C11.8811 23.0725 12.1061 22.52 12.1061 21.9422C12.1061 21.9404 12.106 21.9387 12.106 21.9369C12.1042 21.1966 11.7294 20.506 11.109 20.0972V14.7594C11.109 14.5694 11.0848 14.3848 11.0394 14.2088C10.7942 13.258 9.92937 12.5535 8.90298 12.5535C7.6866 12.5535 6.69698 13.5431 6.69698 14.7594V15.5814L6.27874 14.4555C5.99699 13.6974 5.32712 13.1538 4.52837 13.0392C4.63196 11.5008 5.00547 10.0126 5.64122 8.60809C5.75732 8.35163 5.64353 8.04956 5.387 7.93346C5.13047 7.81729 4.82847 7.93115 4.71237 8.18768C4.00334 9.75405 3.59693 11.4167 3.50143 13.1356C3.48179 13.1423 3.46214 13.1486 3.44263 13.1559C2.2998 13.5805 1.71829 14.849 2.14292 15.992L3.2967 19.0984C3.13839 19.3457 3.03119 19.6214 2.98049 19.9082C2.37213 19.6814 1.6958 19.7251 1.11198 20.0588C0.0534999 20.6639 -0.313554 22.0102 0.291609 23.0687L1.33105 24.8871ZM28.2025 27.4282C26.242 27.4282 24.6293 25.9594 24.3809 24.0851C24.5455 24.1252 24.7295 24.1481 24.9033 24.1481H26.9978C27.191 24.1481 27.3978 24.1212 27.5948 24.0662C28.1397 24.3498 28.7825 24.3988 29.3847 24.1748C29.5554 25.1336 30.3103 25.8308 31.2188 25.9731C30.4967 26.8779 29.3902 27.4282 28.2025 27.4282ZM28.6214 19.7016C28.949 19.1288 29.6779 18.939 30.2402 19.2604C30.2403 19.2604 30.2405 19.2605 30.2405 19.2606C30.8051 19.5838 31.0066 20.3099 30.6816 20.8789C30.6815 20.8789 30.6815 20.879 30.6814 20.8791L29.642 22.6975C29.4627 23.0111 29.1433 23.2387 28.749 23.2854C29.0657 22.8725 29.1967 22.4214 29.2038 21.9421C29.1941 21.8993 29.2372 20.8772 28.3414 20.1914L28.6214 19.7016ZM27.0068 23.1281C27.0038 23.1281 27.0009 23.1285 26.9979 23.1285H24.9034C24.9028 23.1285 24.9022 23.1284 24.9016 23.1284C24.2389 23.1273 23.7171 22.5844 23.7171 21.9421C23.7171 21.9405 23.7172 21.939 23.7172 21.9374C23.7197 21.2889 24.2501 20.7558 24.9034 20.7558H26.9979C26.9988 20.7558 26.9998 20.7559 27.0008 20.7559C27.6521 20.7576 28.1843 21.2874 28.1843 21.9422V21.9422C28.1843 22.5918 27.6591 23.1229 27.0068 23.1281ZM27.087 14.7594V19.7379C27.0169 19.735 24.845 19.733 24.7142 19.744V14.7594C24.7142 14.1052 25.2464 13.573 25.9006 13.573C26.5548 13.573 27.087 14.1052 27.087 14.7594ZM33.1854 20.944C33.7534 21.2686 33.9513 21.9948 33.6266 22.5628L32.5872 24.3812C32.2618 24.9503 31.5364 25.1469 30.9684 24.8224C30.4324 24.516 30.2276 23.8574 30.4737 23.3088C30.5177 23.2107 30.4818 23.2868 31.5666 21.3853C31.5667 21.3852 31.5667 21.385 31.5667 21.385C31.89 20.8199 32.615 20.6179 33.1854 20.944ZM31.7049 15.6369L30.6977 18.3482C29.8194 17.8787 28.7737 18.0589 28.1066 18.7153V18.5093L29.4807 14.8106C29.4811 14.8095 29.4817 14.8084 29.4821 14.8072C29.7124 14.1927 30.3981 13.8859 31.006 14.1116C31.6205 14.34 31.9333 15.0222 31.7049 15.6369ZM6.60093 27.4282C5.41317 27.4282 4.30671 26.8779 3.58463 25.9732C4.51341 25.8284 5.25323 25.1051 5.41786 24.1745C6.02785 24.4018 6.67298 24.344 7.20854 24.0663C7.40335 24.1208 7.60986 24.1482 7.80555 24.1482H9.9C10.0708 24.1482 10.2533 24.1265 10.4225 24.0851C10.1728 25.9753 8.54469 27.4282 6.60093 27.4282ZM4.56256 19.2608C4.56276 19.2607 4.56297 19.2606 4.56324 19.2604C5.13231 18.9352 5.85894 19.1361 6.18201 19.7016L6.46206 20.1915C5.91794 20.608 5.59962 21.2567 5.59962 21.942V21.9421V21.9422C5.59962 22.4256 5.75773 22.8987 6.05443 23.2853C5.66297 23.2392 5.34336 23.0138 5.16269 22.6993C5.16228 22.6986 5.16188 22.698 5.16147 22.6974L4.12196 20.8791C3.78841 20.2956 4.01388 19.575 4.56256 19.2608ZM7.80263 20.7558C7.80358 20.7558 7.8046 20.7557 7.80555 20.7557H9.9C10.556 20.7557 11.0864 21.294 11.0864 21.9421C11.0864 21.9443 11.0861 21.9463 11.0861 21.9484C11.0827 22.5914 10.5604 23.1273 9.90163 23.1284C9.90109 23.1284 9.90055 23.1285 9.9 23.1285H7.80555C7.80256 23.1285 7.79957 23.1281 7.79658 23.1281C7.13309 23.1228 6.61915 22.5807 6.61915 21.9422C6.61915 21.9422 6.61915 21.9422 6.61915 21.9421C6.61915 21.2922 7.14764 20.7576 7.80263 20.7558ZM7.71644 14.7594C7.71644 14.1052 8.24867 13.573 8.90284 13.573C9.55701 13.573 10.0892 14.1052 10.0892 14.7594V19.7441C10.0392 19.7398 9.9658 19.7363 9.90367 19.7362C9.90245 19.7362 9.90123 19.7361 9.9 19.7361H7.80555C7.80453 19.7361 7.80351 19.7362 7.80242 19.7362C7.77367 19.7362 7.74499 19.7367 7.71637 19.7379C7.71644 18.0799 7.71644 16.4179 7.71644 14.7594ZM3.79752 14.1116C4.40452 13.8861 5.09302 14.1923 5.32284 14.8106L6.69691 18.5092V18.7153C6.01834 18.0514 4.96713 17.8848 4.10585 18.3482L3.09862 15.6369C2.87017 15.0222 3.18277 14.3401 3.79752 14.1116ZM1.61797 20.944C2.18717 20.6186 2.91136 20.8158 3.23674 21.3852L4.27619 23.2035C4.29631 23.2388 4.31446 23.2746 4.33057 23.311C4.33281 23.316 4.33437 23.3213 4.33655 23.3264C4.35014 23.3582 4.36299 23.3903 4.37359 23.4227C4.37393 23.4236 4.37407 23.4246 4.37441 23.4255C4.51994 23.8728 4.38494 24.3687 4.03278 24.6804C4.03182 24.6813 4.03101 24.6822 4.03006 24.6831C3.4669 25.1785 2.58719 25.0303 2.21613 24.3812L1.17669 22.5629C0.851367 21.9935 1.04862 21.2694 1.61797 20.944Z" fill="black"/>
<path d="M10.2163 7.38767C10.2163 7.66921 10.4446 7.89747 10.7261 7.89747C11.0077 7.89747 11.2359 7.66921 11.2359 7.38767C11.2359 6.9958 11.5547 6.67694 11.9466 6.67694C12.3386 6.67694 12.6574 6.99574 12.6574 7.38767C12.6574 7.66921 12.8856 7.89747 13.1672 7.89747C13.4487 7.89747 13.677 7.66921 13.677 7.38767C13.677 6.4336 12.9007 5.65735 11.9466 5.65735C10.9926 5.65742 10.2163 6.4336 10.2163 7.38767Z" fill="black"/>
<path d="M21.6363 7.89747C21.9178 7.89747 22.1461 7.66921 22.1461 7.38767C22.1461 6.9958 22.4649 6.67694 22.8568 6.67694C23.2487 6.67694 23.5675 6.99574 23.5675 7.38767C23.5675 7.66921 23.7958 7.89747 24.0773 7.89747C24.3589 7.89747 24.5871 7.66921 24.5871 7.38767C24.5871 6.4336 23.8109 5.65735 22.8568 5.65735C21.9026 5.65735 21.1265 6.4336 21.1265 7.38767C21.1265 7.66928 21.3547 7.89747 21.6363 7.89747Z" fill="black"/>
<path d="M18.3121 8.4792C18.0822 8.74293 17.7504 8.89417 17.4017 8.89417C17.053 8.89417 16.7212 8.74293 16.4913 8.4792C16.3063 8.26692 15.9842 8.24483 15.772 8.42978C15.5598 8.6148 15.5377 8.93679 15.7226 9.14907C16.1462 9.63501 16.7581 9.91377 17.4016 9.91377C18.0451 9.91377 18.6571 9.63508 19.0806 9.14907C19.2656 8.93679 19.2435 8.6148 19.0312 8.42978C18.8191 8.24483 18.497 8.26692 18.3121 8.4792Z" fill="black"/>
<path d="M23.8078 2.12524C23.9329 1.873 23.8298 1.56712 23.5775 1.44205C21.6474 0.485191 19.5696 0 17.4018 0C12.7115 0 8.36586 2.33977 5.77711 6.25882C5.62193 6.49373 5.68657 6.81001 5.92148 6.9652C6.1564 7.12038 6.47268 7.05573 6.62786 6.82082C9.02737 3.18827 13.055 1.01966 17.4018 1.01966C19.4111 1.01966 21.3365 1.46917 23.1247 2.35561C23.3768 2.48061 23.6828 2.37749 23.8078 2.12524Z" fill="black"/>
</svg>
