<svg width="48" height="42" viewBox="0 0 48 42" fill="none" xmlns="http://www.w3.org/2000/svg">
<path d="M43.2048 0.0574951H4.65076C2.38384 0.0574951 0.539551 1.90179 0.539551 4.16871V29.5918C0.539551 31.8587 2.38384 33.703 4.65076 33.703H18.4913V38.912H16.4277C15.6709 38.912 15.0573 39.5256 15.0573 40.2824C15.0573 41.0392 15.6709 41.6528 16.4277 41.6528H31.4279C32.1847 41.6528 32.7983 41.0392 32.7983 40.2824C32.7983 39.5256 32.1847 38.912 31.4279 38.912H29.3643V33.703H43.2048C45.4717 33.703 47.316 31.8587 47.316 29.5918V4.16871C47.316 1.90179 45.4717 0.0574951 43.2048 0.0574951ZM26.6235 38.9121H21.2321V33.7031H26.6235V38.9121ZM44.5752 29.5919C44.5752 30.3475 43.9604 30.9623 43.2048 30.9623H4.65076C3.89512 30.9623 3.28036 30.3475 3.28036 29.5919V27.5086H44.5752V29.5919ZM44.5752 24.7678H3.28036V4.16871C3.28036 3.41307 3.89512 2.7983 4.65076 2.7983H43.2048C43.9604 2.7983 44.5752 3.41307 44.5752 4.16871V24.7678Z" fill="url(#paint0_linear)"/>
<path d="M17.1923 17.2822L13.4801 14.7478L17.1923 12.2134C17.8174 11.7866 17.9782 10.934 17.5514 10.3089C17.1248 9.68387 16.272 9.52308 15.6469 9.94973L10.2769 13.6159C9.90285 13.8713 9.6792 14.2949 9.6792 14.7477C9.6792 15.2005 9.90285 15.6243 10.2769 15.8797L15.6469 19.5458C15.8833 19.7073 16.1523 19.7846 16.4184 19.7846C16.856 19.7846 17.2861 19.5754 17.5514 19.1867C17.9782 18.5616 17.8174 17.709 17.1923 17.2822Z" fill="url(#paint1_linear)"/>
<path d="M37.5787 13.6162L32.2087 9.94997C31.5837 9.52332 30.731 9.68412 30.3042 10.3091C29.8774 10.9342 30.0382 11.7869 30.6633 12.2136L34.3755 14.748L30.6633 17.2823C30.0382 17.709 29.8774 18.5617 30.3042 19.1868C30.5696 19.5755 30.9995 19.7846 31.4372 19.7846C31.7033 19.7846 31.9723 19.7073 32.2087 19.5459L37.5787 15.8797C37.9528 15.6244 38.1764 15.2007 38.1764 14.7479C38.1764 14.2952 37.9527 13.8716 37.5787 13.6162Z" fill="url(#paint2_linear)"/>
<path d="M27.35 8.65993C26.6904 8.2891 25.8548 8.52317 25.4839 9.18306L19.9824 18.9698C19.6116 19.6295 19.8458 20.465 20.5056 20.8359C20.7179 20.9553 20.9484 21.0119 21.1758 21.0119C21.6549 21.0119 22.1201 20.7602 22.3716 20.3128L27.8731 10.5261C28.2441 9.86635 28.0098 9.03086 27.35 8.65993Z" fill="url(#paint3_linear)"/>
<defs>
<linearGradient id="paint0_linear" x1="23.9278" y1="0.0574951" x2="23.9278" y2="41.6528" gradientUnits="userSpaceOnUse">
<stop offset="0.494792" stop-color="#4758FC"/>
<stop offset="0.9998" stop-color="#E040FB"/>
<stop offset="0.9999" stop-color="#18FFFF"/>
<stop offset="1" stop-color="#18FFFF" stop-opacity="0"/>
</linearGradient>
<linearGradient id="paint1_linear" x1="13.7347" y1="9.71106" x2="13.7347" y2="19.7846" gradientUnits="userSpaceOnUse">
<stop offset="0.494792" stop-color="#4758FC"/>
<stop offset="0.9998" stop-color="#E040FB"/>
<stop offset="0.9999" stop-color="#18FFFF"/>
<stop offset="1" stop-color="#18FFFF" stop-opacity="0"/>
</linearGradient>
<linearGradient id="paint2_linear" x1="34.1209" y1="9.7113" x2="34.1209" y2="19.7846" gradientUnits="userSpaceOnUse">
<stop offset="0.494792" stop-color="#4758FC"/>
<stop offset="0.9998" stop-color="#E040FB"/>
<stop offset="0.9999" stop-color="#18FFFF"/>
<stop offset="1" stop-color="#18FFFF" stop-opacity="0"/>
</linearGradient>
<linearGradient id="paint3_linear" x1="23.9278" y1="8.48389" x2="23.9278" y2="21.0119" gradientUnits="userSpaceOnUse">
<stop offset="0.494792" stop-color="#4758FC"/>
<stop offset="0.9998" stop-color="#E040FB"/>
<stop offset="0.9999" stop-color="#18FFFF"/>
<stop offset="1" stop-color="#18FFFF" stop-opacity="0"/>
</linearGradient>
</defs>
</svg>
