<svg width="54" height="72" viewBox="0 0 54 72" fill="none" xmlns="http://www.w3.org/2000/svg">
<path d="M53.4412 15.7284L49.2816 63.9666C43.1172 68.7493 35.3764 71.5958 26.9694 71.5958C18.5624 71.5958 10.8216 68.7493 4.65723 63.9666L0.497559 15.7284H53.4412Z" fill="#006BC0"/>
<path d="M26.969 20.2637V70.6417L44.3717 65.7287L48.2538 20.2637H26.969Z" fill="#0096DC"/>
<path d="M42.3459 39.9686H29.7946L42.9099 33.2939L43.4767 26.584H10.4612L11.0389 33.425H24.292L11.5759 39.7832L12.1675 46.7913H34.8509L34.1074 55.1378L26.9689 57.0712L19.533 54.9891L19.3471 49.784H12.4203L13.2868 60.0455L26.9689 63.9122L40.6509 60.0455L42.3463 39.9675L42.3459 39.9686Z" fill="white"/>
<path d="M14.0678 8.29179V3.53278H20.9087V0.955078H11.5891V10.8695H20.9087V8.29179H14.0678Z" fill="white"/>
<path d="M24.9118 4.83408V3.64422H31.7158V3.53278V0.955078H22.396V7.10193H29.0759V8.29179H22.396V10.8695H31.7158V8.29179V4.83408H24.9118Z" fill="white"/>
<path d="M35.5451 4.83408V3.64422H42.3489V3.53278V0.955078H33.0293V7.10193H39.7092V8.29179H33.0293V10.8695H42.3489V8.29179V4.83408H35.5451Z" fill="white"/>
</svg>
