<svg width="42" height="47" viewBox="0 0 42 47" fill="none" xmlns="http://www.w3.org/2000/svg">
<path d="M21.2092 5.53735C15.9701 5.53735 11.7078 9.79971 11.7078 15.0388C11.7078 18.2913 13.348 21.284 16.0954 23.0442C18.9008 24.8416 22.3446 25.0326 25.5449 23.5603C26.2258 23.247 26.524 22.4409 26.2106 21.7599C25.8973 21.0789 25.0913 20.7808 24.4102 21.0941C22.0701 22.1707 19.5732 22.0483 17.5599 20.7584C15.5953 19.4998 14.4225 17.3616 14.4225 15.0388C14.4225 11.2966 17.467 8.25206 21.2092 8.25206C24.9514 8.25206 27.996 11.2966 27.996 15.0388C27.996 15.7873 27.3871 16.3962 26.6386 16.3962C25.9547 16.3962 25.3159 15.8775 25.2815 15.0594C25.2814 15.0526 25.2813 15.0457 25.2813 15.0388C25.2813 12.7935 23.4546 10.9668 21.2092 10.9668C18.9639 10.9668 17.1372 12.7935 17.1372 15.0388C17.1372 17.2841 18.9639 19.1109 21.2092 19.1109C22.2513 19.1109 23.2028 18.717 23.9238 18.0708C24.6448 18.7171 25.5965 19.1109 26.6386 19.1109C28.884 19.1109 30.7107 17.2841 30.7107 15.0388C30.7107 9.79971 26.4483 5.53735 21.2092 5.53735ZM22.5475 15.2565C22.4427 15.9016 21.8834 16.3962 21.2092 16.3962C20.4608 16.3962 19.8519 15.7873 19.8519 15.0388C19.8519 14.2904 20.4608 13.6815 21.2092 13.6815C21.9052 13.6815 22.4797 14.2081 22.5571 14.8836C22.5368 15.007 22.5335 15.1325 22.5475 15.2565Z" fill="url(#paint0_linear)"/>
<path d="M41.5693 17.9323C41.569 17.5813 41.4276 17.2304 41.1718 16.9746L36.14 11.9428V1.46526C36.14 0.715642 35.5323 0.10791 34.7827 0.10791H7.63564C6.88601 0.10791 6.27828 0.715642 6.27828 1.46526V11.9428L1.24649 16.9746C1.24179 16.9793 1.2378 16.9846 1.23319 16.9894C0.978821 17.2514 0.84951 17.5965 0.848967 17.9323C0.848967 17.9332 0.848877 17.934 0.848877 17.9349V42.3668C0.848877 44.615 2.67823 46.4388 4.92093 46.4388H37.4974C39.7451 46.4388 41.5694 44.6103 41.5694 42.3668V17.9349C41.5694 17.934 41.5693 17.9332 41.5693 17.9323ZM36.14 15.782L38.2925 17.9345L36.14 20.087V15.782ZM8.99299 12.5055C8.99299 12.5052 8.99299 12.5049 8.99299 12.5046V2.82261H33.4253V12.5046C33.4253 12.5049 33.4253 12.5052 33.4253 12.5055V22.8017L26.0763 30.1506H16.342L8.99299 22.8017V12.5055ZM6.27828 15.782V20.087L4.1258 17.9345L6.27828 15.782ZM3.56358 41.8046V21.2114L13.8602 31.508L3.56358 41.8046ZM5.48324 43.7241L16.342 32.8653H26.0763L36.9351 43.7241H5.48324ZM38.8547 41.8046L28.5581 31.508L38.8547 21.2114V41.8046Z" fill="url(#paint1_linear)"/>
<defs>
<linearGradient id="paint0_linear" x1="21.2092" y1="5.53735" x2="21.2092" y2="24.5427" gradientUnits="userSpaceOnUse">
<stop offset="0.494792" stop-color="#4758FC"/>
<stop offset="0.9998" stop-color="#E040FB"/>
<stop offset="0.9999" stop-color="#18FFFF"/>
<stop offset="1" stop-color="#18FFFF" stop-opacity="0"/>
</linearGradient>
<linearGradient id="paint1_linear" x1="21.2092" y1="0.10791" x2="21.2092" y2="46.4388" gradientUnits="userSpaceOnUse">
<stop offset="0.494792" stop-color="#4758FC"/>
<stop offset="0.9998" stop-color="#E040FB"/>
<stop offset="0.9999" stop-color="#18FFFF"/>
<stop offset="1" stop-color="#18FFFF" stop-opacity="0"/>
</linearGradient>
</defs>
</svg>
