<svg width="26" height="20" viewBox="0 0 26 20" fill="none" xmlns="http://www.w3.org/2000/svg">
<path d="M3.28531 1.10876H22.9076C24.0599 1.10876 25 2.04784 25 3.20119V17.1507C25 18.3001 24.0641 19.2431 22.9076 19.2431H3.28531C2.13588 19.2431 1.19289 18.3072 1.19289 17.1507V3.20119C1.19289 2.05175 2.12881 1.10876 3.28531 1.10876ZM3.57425 2.50371L13.0521 11.9816L22.6119 2.50371H3.57425ZM23.6051 16.8618V3.48338L16.887 10.1438L23.6051 16.8618ZM22.6187 17.8481L15.8964 11.1259L13.541 13.4611C13.2683 13.7315 12.8283 13.7306 12.5567 13.459L10.2601 11.1623L3.57421 17.8481H22.6187ZM2.58784 16.8618L9.27368 10.1759L2.58784 3.49003V16.8618Z" fill="white" stroke="white"/>
</svg>
