<svg width="25" height="24" viewBox="0 0 25 24" fill="none" xmlns="http://www.w3.org/2000/svg">
<path d="M12.3196 0C5.74286 0 0.416016 5.30905 0.416016 11.8569C0.416016 17.0966 3.82638 21.5399 8.55507 23.1064C9.15025 23.2181 9.36848 22.8511 9.36848 22.5363C9.36848 22.2548 9.35856 21.5087 9.3536 20.5203C6.04243 21.2352 5.34409 18.9296 5.34409 18.9296C4.80248 17.5611 4.01982 17.1951 4.01982 17.1951C2.94155 16.4601 4.10314 16.4752 4.10314 16.4752C5.29846 16.5576 5.92637 17.6968 5.92637 17.6968C6.98777 19.5098 8.71279 18.9859 9.39328 18.6832C9.50041 17.916 9.80693 17.3942 10.1472 17.0976C7.50359 16.8009 4.7251 15.7814 4.7251 11.2385C4.7251 9.94442 5.18637 8.88663 5.95018 8.05709C5.81626 7.75745 5.41452 6.55186 6.05433 4.91892C6.05433 4.91892 7.05126 4.60118 9.32781 6.13457C10.2801 5.87113 11.2919 5.74041 12.3037 5.73438C13.3155 5.74041 14.3273 5.87113 15.2796 6.13457C17.5413 4.60118 18.5382 4.91892 18.5382 4.91892C19.178 6.55186 18.7763 7.75745 18.6572 8.05709C19.4161 8.88663 19.8773 9.94442 19.8773 11.2385C19.8773 15.7934 17.0949 16.7959 14.4463 17.0875C14.863 17.4435 15.2498 18.1704 15.2498 19.2815C15.2498 20.8682 15.2349 22.1432 15.2349 22.5283C15.2349 22.839 15.4433 23.21 16.0533 23.0914C20.8157 21.5348 24.2231 17.0885 24.2231 11.8569C24.2231 5.30905 18.8933 0 12.3196 0Z" fill="white"/>
</svg>
