<svg width="47" height="38" viewBox="0 0 47 38" fill="none" xmlns="http://www.w3.org/2000/svg">
<path d="M2.7847 28.4432C3.12972 28.6158 3.50121 28.735 3.88434 28.8017L3.28742 29.654C3.16677 29.8265 3.0881 30.0244 3.05705 30.2322L2.16838 36.2254C2.09323 36.733 2.3109 37.2396 2.73143 37.5339C3.1523 37.8284 3.70265 37.8595 4.15351 37.6154L9.17262 34.8975C9.86585 36.1499 11.2008 37.0001 12.7308 37.0001C13.7709 37.0001 14.7209 36.6074 15.4402 35.9629C16.1599 36.6074 17.11 37.0001 18.1497 37.0001C20.3909 37.0001 22.2141 35.1769 22.2141 32.936V32.4174C24.7341 33.6437 27.5402 34.2907 30.3423 34.2907C33.237 34.2907 36.1076 33.6268 38.6516 32.3719V35.6454C38.6516 36.115 38.8946 36.551 39.294 36.798C39.6926 37.0442 40.1915 37.0675 40.612 36.8572L46.0312 34.1478C46.4901 33.9182 46.7801 33.4493 46.7801 32.936V16.6792C46.7801 15.9309 46.1733 15.3245 45.4254 15.3245C43.2674 15.3245 38.0321 15.3245 36.0751 15.3245L26.5185 10.6483L30.1494 5.46301C30.578 4.85057 30.4295 4.00529 29.8163 3.5763L25.3776 0.467893C24.7651 0.039256 23.9198 0.18778 23.4909 0.800572C22.9172 1.61974 19.2567 6.8477 18.6869 7.66123C17.5757 7.07737 16.2432 7.08019 15.3979 7.44709L10.243 9.68658C9.49578 10.0115 8.86958 10.5463 8.43283 11.2339L1.03558 22.8688C0.555081 23.6249 0.356109 24.9221 0.746292 26.093C1.08955 27.1228 1.81347 27.9575 2.7847 28.4432ZM5.2461 33.9428L5.69061 30.9463L6.90208 29.2158C7.42138 29.974 8.12802 30.5931 8.95495 31.008L7.91 32.5003L5.2461 33.9428ZM12.7308 34.291C11.984 34.291 11.3761 33.6832 11.3761 32.936V32.2738L11.8612 31.5813H14.0855V32.936C14.0855 33.6832 13.478 34.291 12.7308 34.291ZM18.15 34.291C17.4028 34.291 16.7953 33.6832 16.7953 32.936V31.5813H19.5047V32.936C19.5047 33.6832 18.8969 34.291 18.15 34.291ZM44.0707 32.0988L41.361 33.4535V18.0339H44.0707V32.0988ZM35.166 17.896C35.3516 17.9866 35.5551 18.0339 35.7615 18.0339H38.6516V29.3711C37.7385 29.726 34.9035 31.5813 30.3427 31.5813C25.5077 31.5813 22.5299 29.4399 21.4652 29.0148C21.2718 28.9181 21.0587 28.8719 20.8594 28.8719H11.3761C9.99074 28.8719 8.84559 27.8266 8.68648 26.4832C8.72882 26.2867 8.72493 26.0849 8.68013 25.8919C8.81631 24.5245 9.97345 23.4531 11.3761 23.4531H19.7372C22.5697 23.4531 25.2333 22.3499 27.2364 20.3468C27.7652 19.8176 27.7652 18.96 27.2364 18.4308C26.7072 17.9016 25.8496 17.9016 25.3204 18.4308C23.8288 19.922 21.8462 20.7437 19.7372 20.7437H19.45L24.945 12.8955L35.166 17.896ZM21.825 7.9036L24.0444 9.45798L16.1423 20.7437H12.8346C13.9864 19.0986 20.7684 9.41282 21.825 7.9036ZM24.9331 3.46482L27.1528 5.01885L25.5984 7.23859L23.379 5.68421L24.9331 3.46482ZM3.36574 24.2539L10.7192 12.6877C10.8649 12.4584 11.0738 12.2803 11.3229 12.172L16.4132 9.96035C16.6394 9.89402 16.8726 9.88944 17.0927 9.93847L9.20931 21.197C7.5431 21.9269 6.31187 23.4707 6.02258 25.3235C5.77493 26.0192 4.69857 26.3706 3.99652 26.0196C3.33575 25.6894 3.07328 24.9051 3.36574 24.2539Z" fill="url(#paint0_linear)"/>
<defs>
<linearGradient id="paint0_linear" x1="23.6598" y1="0.223022" x2="23.6598" y2="37.7788" gradientUnits="userSpaceOnUse">
<stop offset="0.494792" stop-color="#4758FC"/>
<stop offset="0.9998" stop-color="#E040FB"/>
<stop offset="0.9999" stop-color="#18FFFF"/>
<stop offset="1" stop-color="#18FFFF" stop-opacity="0"/>
</linearGradient>
</defs>
</svg>
