<svg width="54" height="71" viewBox="0 0 54 71" fill="none" xmlns="http://www.w3.org/2000/svg">
<path d="M53.4213 14.8459L49.2616 63.0841C43.0973 67.8669 35.3565 70.7133 26.9495 70.7133C18.6183 70.7133 10.9415 67.9174 4.80385 63.2119L0.633789 14.8459H53.4213Z" fill="#E64C18"/>
<path d="M27.0273 19.3684V69.5985L44.3791 64.7L48.2497 19.3684H27.0273Z" fill="#F36518"/>
<path d="M10.5679 25.6704L12.2694 45.8188H34.8857L34.1458 54.1417L27.0275 56.0694L19.6138 53.9925L19.4276 48.8034H12.5217L13.3862 59.0339L27.0275 62.8891L40.6686 59.0339L42.3592 39.0161H18.5418L17.9507 32.4919L17.9506 32.4916L42.9223 32.3608L43.487 25.6704H10.5679Z" fill="white"/>
<path d="M12.0278 0.231934V3.69349H8.7204V0.231934H5.64355V10.1546H8.7204V6.92404H12.0278V10.1546H15.1047V0.231934H12.0278Z" fill="white"/>
<path d="M26.0273 0.231934H16.5659V3.69349H19.6428V10.2317H22.9505V3.69349H26.0273V0.231934Z" fill="white"/>
<path d="M43.6422 7.07766V0.308838H40.3345V7.07766V10.2316H43.6422H48.411V7.07766H43.6422Z" fill="white"/>
<path d="M35.3345 0.308838L33.0271 3.84711L30.7194 0.308838H27.4119V10.2316H30.7194V5.30853L33.0271 8.84708L35.3345 5.30853V10.2316H38.6422V0.308838H35.3345Z" fill="white"/>
</svg>
