<svg width="52" height="72" viewBox="0 0 52 72" fill="none" xmlns="http://www.w3.org/2000/svg">
<path d="M51.1549 14.6268H25.8433H0.531006L5.2747 66.0891L25.8433 71.9207L46.4037 66.0891L51.1549 14.6268Z" fill="#E7A63B"/>
<path d="M25.843 18.8191V67.5626L42.4987 62.8409L46.5549 18.8191H25.843Z" fill="#F1C137"/>
<path d="M39.0944 25.1336H13.476L11.6956 44.4026L11.7333 44.2819H33.4947L32.7845 52.4325L25.8431 54.4336L18.7954 52.4024L18.3724 47.4695H11.9746L12.889 57.3271L25.8431 61.0055L38.7971 57.3271L40.5801 37.9821H17.4888L17.7829 31.5315H33.8108L34.0465 35.2237H40.5015L39.0944 25.1336Z" fill="white"/>
<path d="M18.3728 47.4695H11.975L12.8888 57.327L25.8434 60.9973V54.4336L18.7958 52.4024L18.3728 47.4695ZM25.8434 25.1336H13.4758L11.6953 44.4025L11.7336 44.2819H25.8434V37.9821H18.3797L18.6739 31.5315H25.8434V25.1336Z" fill="#EBEBEC"/>
<path d="M20.917 7.0357H16.4153V10.2686H20.917H23.3272H24.143V0.660496H20.917V7.0357Z" fill="white"/>
<path d="M35.2715 0.709222H27.4194V4.07405C28.469 5.12423 29.0176 5.627 30.5373 7.14665C29.6486 7.14665 27.4194 7.14979 27.4194 7.14979V10.2192H35.2715V7.14916L32.1355 4.07405H35.2715V0.709222Z" fill="white"/>
</svg>
