<svg width="27" height="27" viewBox="0 0 27 27" fill="none" xmlns="http://www.w3.org/2000/svg">
<path d="M26.3752 26.8743V26.8732H26.3818V17.017C26.3818 12.1953 25.3628 8.48108 19.8293 8.48108C17.1691 8.48108 15.3839 9.96812 14.6551 11.3779H14.5782V8.93122H9.33154V26.8732H14.7948V17.989C14.7948 15.6498 15.2301 13.3879 18.0738 13.3879C20.8757 13.3879 20.9175 16.0574 20.9175 18.139V26.8743H26.3752Z" fill="white"/>
<path d="M0.435303 8.93231H5.90511V26.8743H0.435303V8.93231Z" fill="white"/>
<path d="M3.168 0C1.41912 0 0 1.44561 0 3.22716C0 5.0087 1.41912 6.48455 3.168 6.48455C4.91689 6.48455 6.336 5.0087 6.336 3.22716C6.33491 1.44561 4.91579 0 3.168 0V0Z" fill="white"/>
</svg>
