<svg width="23" height="23" viewBox="0 0 23 23" fill="none" xmlns="http://www.w3.org/2000/svg">
<path d="M22.426 22.85V22.849H22.4316V14.4688C22.4316 10.3691 21.5652 7.21106 16.8603 7.21106C14.5985 7.21106 13.0806 8.47543 12.461 9.6741H12.3956V7.5938H7.93457V22.849H12.5797V15.2952C12.5797 13.3063 12.9498 11.3831 15.3677 11.3831C17.7501 11.3831 17.7856 13.6528 17.7856 15.4228V22.85H22.426Z" fill="white"/>
<path d="M0.370605 7.59473H5.02133V22.8499H0.370605V7.59473Z" fill="white"/>
<path d="M2.69361 0C1.20661 0 0 1.22914 0 2.7439C0 4.25867 1.20661 5.51351 2.69361 5.51351C4.1806 5.51351 5.38721 4.25867 5.38721 2.7439C5.38628 1.22914 4.17967 0 2.69361 0V0Z" fill="white"/>
</svg>
