<svg width="69" height="62" viewBox="0 0 69 62" fill="none" xmlns="http://www.w3.org/2000/svg">
<path d="M0.439697 31.0375C0.439697 36.1743 5.46753 40.9693 13.394 43.6723C11.8111 51.6219 13.1104 58.0295 17.4499 60.526C21.9102 63.0924 28.5552 61.316 34.8623 55.8157C41.0102 61.0939 47.2235 63.171 51.5592 60.6672C56.0155 58.0936 57.3706 51.2516 55.744 43.0537C64 40.3307 68.6182 36.2419 68.6182 31.0375C68.6182 26.02 63.5812 21.6794 55.7614 18.9938C57.5126 10.4572 56.0289 4.20521 51.5096 1.60543C47.1528 -0.901042 40.8671 1.28357 34.6289 6.69965C28.1388 0.951012 21.9153 -0.804002 17.4008 1.80299C13.048 4.31668 11.806 10.8408 13.394 18.9374C5.73496 21.6014 0.439697 26.0404 0.439697 31.0375Z" fill="white"/>
<path d="M54.1052 21.6606C53.4607 21.4401 52.8108 21.2357 52.156 21.0479C52.2646 20.6077 52.365 20.1655 52.4572 19.7217C53.9326 12.5765 52.9679 6.82037 49.6736 4.92554C46.5151 3.10824 41.3492 5.00307 36.1319 9.53242C35.6178 9.97975 35.1152 10.44 34.6244 10.9126C34.2957 10.5983 33.9612 10.2901 33.6211 9.98822C28.1533 5.14475 22.6726 3.10397 19.3817 5.00441C16.2261 6.82679 15.2915 12.2383 16.6198 19.0098C16.7519 19.6803 16.9011 20.3474 17.0673 21.0104C16.2918 21.2302 15.5428 21.4644 14.8263 21.7135C8.416 23.943 4.32202 27.4376 4.32202 31.062C4.32202 34.8057 8.71666 38.5606 15.3938 40.8371C15.9352 41.0209 16.4812 41.1911 17.0311 41.3477C16.8524 42.062 16.6938 42.7812 16.5554 43.5043C15.289 50.1581 16.2781 55.4413 19.4254 57.2525C22.676 59.1224 28.1318 57.2003 33.4445 52.5675C33.8644 52.2013 34.2859 51.8129 34.708 51.4057C35.2396 51.9174 35.7854 52.4142 36.3447 52.8955C41.4907 57.3131 46.5729 59.097 49.7175 57.2811C52.9653 55.4055 54.0205 49.7298 52.6501 42.8245C52.5456 42.297 52.4237 41.7584 52.287 41.2098C52.6702 41.097 53.0462 40.9804 53.413 40.8591C60.3544 38.5648 64.8704 34.8557 64.8704 31.062C64.8704 27.4245 60.6446 23.9064 54.1052 21.6606Z" fill="#53C1DE"/>
<path d="M52.5997 38.4099C52.2688 38.5192 51.929 38.6248 51.5828 38.7272C50.8164 36.3071 49.7821 33.7335 48.5167 31.0749C49.7244 28.4791 50.7186 25.9387 51.4635 23.5341C52.0828 23.7132 52.6841 23.9017 53.2635 24.1008C58.8666 26.0248 62.2842 28.87 62.2842 31.0621C62.2842 33.3972 58.593 36.4287 52.6 38.4099H52.5997ZM50.113 43.3258C50.7189 46.3792 50.8054 49.1399 50.404 51.298C50.0433 53.2372 49.3182 54.53 48.4216 55.0479C46.5134 56.1498 42.4326 54.7174 38.0321 50.9396C37.5275 50.5065 37.0191 50.044 36.5095 49.5548C38.2156 47.6931 39.9207 45.5288 41.5847 43.1255C44.512 42.8665 47.2774 42.4428 49.7853 41.8645C49.9085 42.3618 50.0184 42.8491 50.113 43.3258ZM24.9645 54.8575C23.1002 55.5144 21.6154 55.5331 20.718 55.0168C18.808 53.9181 18.0142 49.6756 19.0971 43.9855C19.2259 43.3131 19.3733 42.6443 19.5392 41.98C22.0193 42.5273 24.7646 42.921 27.6988 43.1584C29.3738 45.5101 31.1282 47.6717 32.8962 49.5647C32.5205 49.9273 32.1358 50.2806 31.7426 50.6244C29.3934 52.6732 27.0393 54.1264 24.9647 54.8575H24.9645ZM16.2307 38.3954C13.2782 37.3887 10.84 36.0804 9.16871 34.6528C7.66703 33.3696 6.90869 32.0958 6.90869 31.0621C6.90869 28.8627 10.1958 26.0571 15.6781 24.1503C16.3662 23.912 17.0612 23.6938 17.7621 23.4961C18.5199 25.9547 19.5138 28.5254 20.7132 31.1249C19.4982 33.7632 18.4902 36.3747 17.7254 38.8622C17.2234 38.7188 16.725 38.5632 16.2307 38.3954ZM19.1585 18.5142C18.0204 12.7124 18.7761 8.33591 20.6778 7.23773C22.7036 6.0679 27.1827 7.73603 31.9037 11.9179C32.2054 12.1852 32.5085 12.4651 32.8121 12.7546C31.0532 14.639 29.3149 16.7843 27.6543 19.1224C24.8066 19.3857 22.0806 19.8086 19.5746 20.3751C19.4202 19.7583 19.2815 19.1377 19.1585 18.5139V18.5142ZM45.2762 24.948C44.6843 23.928 44.0704 22.9208 43.435 21.9272C45.3671 22.1704 47.2179 22.4939 48.9559 22.8898C48.4342 24.5582 47.7838 26.3028 47.018 28.0912C46.4584 27.032 45.8777 25.9841 45.2762 24.948ZM34.6254 14.5986C35.8184 15.8879 37.0132 17.3278 38.1885 18.8898C35.8045 18.7774 33.4164 18.7769 31.0323 18.8882C32.2086 17.3406 33.4137 15.9029 34.6254 14.5986ZM23.9063 24.9656C23.3123 25.9935 22.7424 27.035 22.1972 28.0894C21.4439 26.3071 20.7995 24.5547 20.2732 22.8626C22.0008 22.4768 23.843 22.1616 25.7625 21.9224C25.1199 22.9221 24.501 23.9369 23.9063 24.9656ZM25.8177 40.386C23.8347 40.1651 21.9646 39.866 20.2376 39.4909C20.7721 37.7688 21.4308 35.9788 22.2001 34.1583C22.7477 35.2134 23.32 36.2556 23.9167 37.2839C24.5256 38.3328 25.1594 39.3671 25.8177 40.386ZM34.697 47.7078C33.471 46.388 32.2483 44.9284 31.054 43.3584C32.2132 43.4038 33.3952 43.4268 34.5965 43.4268C35.8307 43.4268 37.0508 43.3993 38.2515 43.3458C37.0725 44.9444 35.8819 46.4062 34.697 47.7078ZM47.0427 34.0655C47.8519 35.9058 48.5341 37.6862 49.076 39.3792C47.3203 39.7788 45.4249 40.1007 43.4278 40.3397C44.0678 39.3275 44.6875 38.3027 45.2867 37.266C45.8957 36.2123 46.4812 35.1452 47.0427 34.0655ZM43.046 35.9769C42.1288 37.5664 41.16 39.1258 40.1412 40.6525C38.3448 40.7805 36.4883 40.8466 34.5965 40.8466C32.7124 40.8466 30.8795 40.788 29.1144 40.6739C28.0692 39.1507 27.0821 37.5887 26.1553 35.9911C25.2328 34.4019 24.3711 32.7784 23.5721 31.1241C24.3691 29.4692 25.2282 27.8449 26.1475 26.2544V26.255C27.0666 24.6642 28.0459 23.1088 29.0834 21.5922C30.8841 21.4564 32.7304 21.3853 34.5967 21.3853C36.4714 21.3853 38.3201 21.4569 40.1203 21.5938C41.1472 23.1081 42.1203 24.658 43.0376 26.2408C43.9602 27.8277 44.8307 29.4441 45.6479 31.0875C44.8391 32.7476 43.9713 34.3784 43.0462 35.9769H43.046ZM48.3819 7.161C50.4094 8.32763 51.198 13.0318 49.9241 19.201C49.8406 19.6028 49.7498 20.0032 49.6518 20.4018C47.1399 19.8236 44.412 19.3932 41.5561 19.1258C39.8923 16.7624 38.1684 14.6133 36.4379 12.7533C36.8914 12.3171 37.3557 11.8923 37.8303 11.4792C42.3005 7.59809 46.4783 6.06576 48.3819 7.161Z" fill="white"/>
<path d="M34.5964 25.6682C37.5826 25.6682 40.0032 28.0833 40.0032 31.0621C40.0032 34.0412 37.5826 36.4563 34.5964 36.4563C31.6105 36.4563 29.1897 34.0412 29.1897 31.0621C29.1897 28.0833 31.6105 25.6682 34.5964 25.6682Z" fill="#53C1DE"/>
</svg>
