<svg width="47" height="47" viewBox="0 0 47 47" fill="none" xmlns="http://www.w3.org/2000/svg">
<path d="M18.0127 15.3767C19.0051 14.3585 19.5511 13.0372 19.5511 11.6369C19.5511 8.61836 17.0169 6.20752 14.0312 6.20752C11.0432 6.20752 8.51133 8.62143 8.51133 11.6369C8.51133 13.0373 9.05726 14.3585 10.0498 15.3767C7.55422 16.7556 5.79663 19.3923 5.79663 22.4957V23.8531C5.79663 24.6027 6.40436 25.2104 7.15398 25.2104H20.9085C21.6581 25.2104 22.2658 24.6027 22.2658 23.8531V22.4957C22.2658 19.4461 20.5575 16.7828 18.0127 15.3767ZM14.0312 8.92222C15.5518 8.92222 16.8364 10.1654 16.8364 11.6369C16.8364 13.1085 15.5518 14.3516 14.0312 14.3516C12.5106 14.3516 11.226 13.1085 11.226 11.6369C11.226 10.1654 12.5106 8.92222 14.0312 8.92222ZM8.51133 22.4957C8.51133 19.502 10.9875 17.0663 14.0312 17.0663C17.075 17.0663 19.5511 19.502 19.5511 22.4957H8.51133Z" fill="url(#paint0_linear)"/>
<path d="M45.5055 16.1465C43.9178 14.5588 41.3343 14.5588 39.7467 16.1465L38.554 17.3392V10.2794C38.554 9.92634 38.4193 9.58808 38.1566 9.31978C38.1565 9.31969 38.1565 9.3196 38.1564 9.3196L30.0229 1.00537C29.758 0.736161 29.4009 0.597168 29.0526 0.597168H4.43924C2.18857 0.597168 0.367188 2.50615 0.367188 4.75971V42.856C0.367188 45.1014 2.19391 46.9281 4.43924 46.9281H34.482C36.7273 46.9281 38.554 45.1014 38.554 42.856V28.8567L41.6662 25.7445L45.5055 21.9053C47.093 20.3177 47.093 17.7343 45.5055 16.1465ZM30.4099 5.28311L33.97 8.92226H30.4099V5.28311ZM35.8393 42.856C35.8393 43.6045 35.2304 44.2134 34.482 44.2134H4.43924C3.6908 44.2134 3.08189 43.6045 3.08189 42.856V4.75971C3.08189 3.98847 3.71614 3.31187 4.43924 3.31187H27.6952V10.2796C27.6952 11.0292 28.3029 11.637 29.0526 11.637H35.8393V20.054L24.39 31.5033C24.2955 31.5976 24.2017 31.7241 24.1357 31.856L20.6717 38.784H15.3885C14.6389 38.784 14.0312 39.3917 14.0312 40.1413C14.0312 40.891 14.6389 41.4987 15.3885 41.4987H20.9084C21.0124 41.4987 21.8482 41.4901 22.1177 41.3554L29.796 37.5163C29.9292 37.4492 30.0517 37.3588 30.1488 37.262L35.8393 31.5715V42.856ZM27.7071 35.5255L24.5457 37.1062L26.1265 33.9448C26.8713 34.1908 27.4612 34.7806 27.7071 35.5255ZM29.8547 33.7169C29.3956 32.9201 28.7318 32.2563 27.9351 31.7973L36.8674 22.8652L38.7869 24.7847L29.8547 33.7169ZM43.5858 19.9858L40.7064 22.8651L38.7868 20.9455L41.6662 18.0661C42.1955 17.5369 43.0566 17.5369 43.5858 18.0661C44.1151 18.5954 44.1151 19.4565 43.5858 19.9858Z" fill="url(#paint1_linear)"/>
<path d="M31.7672 14.3517H26.3378C25.5882 14.3517 24.9805 14.9594 24.9805 15.709C24.9805 16.4587 25.5882 17.0664 26.3378 17.0664H31.7672C32.5168 17.0664 33.1246 16.4587 33.1246 15.709C33.1246 14.9594 32.5168 14.3517 31.7672 14.3517Z" fill="url(#paint2_linear)"/>
<path d="M31.7672 19.781H26.3378C25.5882 19.781 24.9805 20.3887 24.9805 21.1384C24.9805 21.888 25.5882 22.4957 26.3378 22.4957H31.7672C32.5168 22.4957 33.1246 21.888 33.1246 21.1384C33.1246 20.3887 32.5168 19.781 31.7672 19.781Z" fill="url(#paint3_linear)"/>
<path d="M18.1938 27.9252H7.15398C6.40436 27.9252 5.79663 28.5329 5.79663 29.2825C5.79663 30.0321 6.40436 30.6399 7.15398 30.6399H18.1938C18.9434 30.6399 19.5511 30.0321 19.5511 29.2825C19.5511 28.5329 18.9434 27.9252 18.1938 27.9252Z" fill="url(#paint4_linear)"/>
<path d="M18.1938 33.3545H7.15398C6.40436 33.3545 5.79663 33.9622 5.79663 34.7118C5.79663 35.4615 6.40436 36.0692 7.15398 36.0692H18.1938C18.9434 36.0692 19.5511 35.4615 19.5511 34.7118C19.5511 33.9622 18.9434 33.3545 18.1938 33.3545Z" fill="url(#paint5_linear)"/>
<defs>
<linearGradient id="paint0_linear" x1="14.0312" y1="6.20752" x2="14.0312" y2="25.2104" gradientUnits="userSpaceOnUse">
<stop offset="0.494792" stop-color="#4758FC"/>
<stop offset="0.9998" stop-color="#E040FB"/>
<stop offset="0.9999" stop-color="#18FFFF"/>
<stop offset="1" stop-color="#18FFFF" stop-opacity="0"/>
</linearGradient>
<linearGradient id="paint1_linear" x1="23.5317" y1="0.597168" x2="23.5317" y2="46.9281" gradientUnits="userSpaceOnUse">
<stop offset="0.494792" stop-color="#4758FC"/>
<stop offset="0.9998" stop-color="#E040FB"/>
<stop offset="0.9999" stop-color="#18FFFF"/>
<stop offset="1" stop-color="#18FFFF" stop-opacity="0"/>
</linearGradient>
<linearGradient id="paint2_linear" x1="29.0525" y1="14.3517" x2="29.0525" y2="17.0664" gradientUnits="userSpaceOnUse">
<stop offset="0.494792" stop-color="#4758FC"/>
<stop offset="0.9998" stop-color="#E040FB"/>
<stop offset="0.9999" stop-color="#18FFFF"/>
<stop offset="1" stop-color="#18FFFF" stop-opacity="0"/>
</linearGradient>
<linearGradient id="paint3_linear" x1="29.0525" y1="19.781" x2="29.0525" y2="22.4957" gradientUnits="userSpaceOnUse">
<stop offset="0.494792" stop-color="#4758FC"/>
<stop offset="0.9998" stop-color="#E040FB"/>
<stop offset="0.9999" stop-color="#18FFFF"/>
<stop offset="1" stop-color="#18FFFF" stop-opacity="0"/>
</linearGradient>
<linearGradient id="paint4_linear" x1="12.6739" y1="27.9252" x2="12.6739" y2="30.6399" gradientUnits="userSpaceOnUse">
<stop offset="0.494792" stop-color="#4758FC"/>
<stop offset="0.9998" stop-color="#E040FB"/>
<stop offset="0.9999" stop-color="#18FFFF"/>
<stop offset="1" stop-color="#18FFFF" stop-opacity="0"/>
</linearGradient>
<linearGradient id="paint5_linear" x1="12.6739" y1="33.3545" x2="12.6739" y2="36.0692" gradientUnits="userSpaceOnUse">
<stop offset="0.494792" stop-color="#4758FC"/>
<stop offset="0.9998" stop-color="#E040FB"/>
<stop offset="0.9999" stop-color="#18FFFF"/>
<stop offset="1" stop-color="#18FFFF" stop-opacity="0"/>
</linearGradient>
</defs>
</svg>
