<svg width="33" height="27" viewBox="0 0 33 27" fill="none" xmlns="http://www.w3.org/2000/svg">
<path d="M32.9416 3.1772C31.6457 3.73462 30.3494 4.08274 29.054 4.22257C30.5171 3.3447 31.5068 2.10451 32.0224 0.502079C30.684 1.29619 29.256 1.83949 27.7372 2.13226C26.3994 0.710949 24.7554 0 22.8041 0C20.9371 0 19.3452 0.65831 18.0278 1.97522C16.7112 3.29206 16.0528 4.88396 16.0528 6.75112C16.0528 7.25269 16.1085 7.76846 16.22 8.29792C13.4609 8.1586 10.8726 7.46536 8.45473 6.21822C6.03702 4.97093 3.98515 3.3092 2.29911 1.23301C1.68597 2.27788 1.37929 3.41374 1.37929 4.63995C1.37929 5.79653 1.65097 6.86965 2.19471 7.85902C2.73808 8.84824 3.46982 9.64938 4.38956 10.2626C3.30246 10.2207 2.28527 9.93498 1.33785 9.40545V9.48905C1.33785 11.1195 1.84996 12.551 2.87403 13.7846C3.89825 15.0181 5.19078 15.7945 6.75134 16.1151C6.16602 16.2682 5.57367 16.3449 4.97459 16.3449C4.58438 16.3449 4.15932 16.3101 3.69955 16.2409C4.1315 17.5923 4.92583 18.7032 6.08227 19.5746C7.23892 20.4455 8.54881 20.8944 10.012 20.9229C7.55959 22.8456 4.76572 23.8069 1.6304 23.8069C1.0311 23.8069 0.487803 23.7796 0 23.7235C3.13539 25.7439 6.59116 26.754 10.3675 26.754C12.7643 26.754 15.0148 26.3747 17.1183 25.6151C19.2228 24.856 21.0202 23.8385 22.5113 22.5632C24.002 21.2883 25.2878 19.8216 26.3676 18.1635C27.4475 16.5052 28.2519 14.774 28.7819 12.9695C29.3112 11.1646 29.5761 9.35698 29.5761 7.54516C29.5761 7.15495 29.5691 6.86247 29.5551 6.66729C30.8792 5.70626 32.0079 4.5425 32.9416 3.1772Z" fill="white"/>
</svg>
