<svg width="32" height="32" viewBox="0 0 32 32" fill="none" xmlns="http://www.w3.org/2000/svg">
<rect width="32" height="32" rx="5" fill="#45CE39"/>
<path d="M15.9999 28.4444H15.995C14.0532 28.4437 12.1279 27.9816 10.4026 27.105L5.08426 28.3244C4.75974 28.3987 4.41984 28.3005 4.18362 28.0641C3.9474 27.8277 3.84771 27.4859 3.91911 27.1582L5.07153 21.8782C4.08146 20.0352 3.5587 18.0167 3.55585 16.0152C3.55566 16.0083 3.55566 16.0014 3.55566 15.9947C3.55699 12.6779 4.85829 9.55426 7.21954 7.19925C9.57547 4.84961 12.6936 3.55554 15.9997 3.55554C19.3133 3.55688 22.4265 4.8521 24.7668 7.20231C27.1396 9.58526 28.4457 12.7114 28.4446 16.0047C28.4436 18.4935 27.7032 20.8988 26.3036 22.9604C26.0003 23.4071 25.3953 23.5214 24.9521 23.2157C24.5091 22.9101 24.3956 22.3003 24.6988 21.8535C25.8763 20.119 26.4992 18.0963 26.5001 16.0039C26.5011 13.2357 25.3982 10.6029 23.3945 8.59074C21.421 6.60878 18.7947 5.51664 15.9993 5.51549C10.2186 5.51549 5.51226 10.2067 5.50011 15.9771C5.50011 15.9834 5.5003 15.9896 5.5003 15.9957C5.49954 17.7818 5.99799 19.5929 6.94154 21.233C7.06364 21.4453 7.10238 21.6958 7.04997 21.9352L6.14743 26.0705L10.3202 25.1137C10.5505 25.061 10.7921 25.0945 10.9998 25.208C12.5244 26.0423 14.2518 26.4837 15.9954 26.4845H15.9997C17.8958 26.4845 19.7578 25.9677 21.3844 24.9902C21.8454 24.7129 22.4422 24.865 22.7172 25.3299C22.9921 25.7949 22.8414 26.3962 22.3801 26.6736C20.4526 27.8319 18.2463 28.4444 15.9997 28.4444H15.9999ZM13.2542 11.0141C13.0409 10.5379 12.8165 10.5216 12.6137 10.5134H12.0681C11.8782 10.5134 11.5699 10.585 11.3091 10.8711C11.0482 11.1572 10.3128 11.849 10.3128 13.256C10.3128 14.663 11.3329 16.0227 11.4751 16.2137C11.6175 16.4043 13.4444 19.3839 16.3375 20.5302C18.7421 21.4828 19.2314 21.2933 19.7532 21.2454C20.2752 21.198 21.4375 20.5539 21.6745 19.8861C21.9119 19.2185 21.9119 18.6462 21.8407 18.5266C21.7696 18.4075 21.5798 18.3359 21.2951 18.193C21.0103 18.05 19.6152 17.3462 19.3543 17.2509C19.0934 17.1556 18.9037 17.1079 18.7138 17.3942C18.5239 17.6802 17.9649 18.3415 17.7987 18.5321C17.6328 18.7233 17.4666 18.7471 17.182 18.6041C16.8973 18.4605 15.9899 18.1533 14.9024 17.1793C14.056 16.4212 13.4689 15.4546 13.3028 15.1683C13.1366 14.8823 13.2849 14.7273 13.4277 14.5847C13.5555 14.4566 13.7285 14.2815 13.8709 14.1146C14.0129 13.9477 14.0536 13.8284 14.1483 13.6376C14.2433 13.4468 14.1958 13.2799 14.1248 13.1367C14.0536 12.9937 13.5071 11.5795 13.254 11.0141" fill="white"/>
</svg>
